<svg xmlns="http://www.w3.org/2000/svg" width="1100" height="430" viewBox="0 0 1100 430" role="img" aria-labelledby="title desc">
  <title id="title">Contribution insights card</title>
  <desc id="desc">A GitHub profile card styled like a contribution analytics dashboard, with summary panels, push bars, and top contributor heatmaps.</desc>
  <defs>
    <style>
      .title { font: 700 18px "Segoe UI", Arial, sans-serif; }
      .heading { font: 700 15px "Segoe UI", Arial, sans-serif; }
      .value { font: 700 16px "Segoe UI", Arial, sans-serif; }
      .metric { font: 600 14px "SFMono-Regular", Consolas, "Liberation Mono", Menlo, monospace; }
      .body { font: 500 14px "Segoe UI", Arial, sans-serif; }
      .small { font: 500 13px "Segoe UI", Arial, sans-serif; }
      .tiny { font: 600 11px "Segoe UI", Arial, sans-serif; letter-spacing: 0.2px; }
    </style>
  </defs>

  <rect x="1" y="1" width="1098" height="428" rx="14" fill="#ffffff" stroke="#e5e7eb" />

  <rect x="14" y="14" width="1072" height="58" rx="8" fill="#ffffff" stroke="#e5e7eb" />
  <g fill="#ec4899">
    <rect x="28" y="28" width="8" height="8" rx="1.5" />
    <rect x="39" y="28" width="8" height="8" rx="1.5" />
    <rect x="50" y="28" width="8" height="8" rx="1.5" />
    <rect x="28" y="39" width="8" height="8" rx="1.5" />
    <rect x="39" y="39" width="8" height="8" rx="1.5" />
    <rect x="50" y="39" width="8" height="8" rx="1.5" />
    <rect x="28" y="50" width="8" height="8" rx="1.5" />
    <rect x="39" y="50" width="8" height="8" rx="1.5" />
    <rect x="50" y="50" width="8" height="8" rx="1.5" />
  </g>
  <text x="68" y="49" class="title" fill="#ec4899">156 Contributions in the Last 30 Days</text>

  <g fill="#f9a8d4">
    <rect x="718" y="34" width="11" height="11" rx="1.5" />
    <rect x="732" y="34" width="11" height="11" rx="1.5" />
    <rect x="746" y="34" width="11" height="11" rx="1.5" />
    <rect x="760" y="34" width="11" height="11" rx="1.5" />
    <rect x="774" y="34" width="11" height="11" rx="1.5" />
    <rect x="788" y="34" width="11" height="11" rx="1.5" />
    <rect x="802" y="34" width="11" height="11" rx="1.5" />
    <rect x="816" y="34" width="11" height="11" rx="1.5" />
    <rect x="830" y="34" width="11" height="11" rx="1.5" />
    <rect x="844" y="34" width="11" height="11" rx="1.5" />
    <rect x="858" y="34" width="11" height="11" rx="1.5" />
    <rect x="872" y="34" width="11" height="11" rx="1.5" />
    <rect x="886" y="34" width="11" height="11" rx="1.5" />
    <rect x="900" y="34" width="11" height="11" rx="1.5" />
    <rect x="914" y="34" width="11" height="11" rx="1.5" />
    <rect x="928" y="34" width="11" height="11" rx="1.5" />
    <rect x="942" y="34" width="11" height="11" rx="1.5" />
    <rect x="956" y="34" width="11" height="11" rx="1.5" />
    <rect x="970" y="34" width="11" height="11" rx="1.5" />
    <rect x="984" y="34" width="11" height="11" rx="1.5" />
    <rect x="998" y="34" width="11" height="11" rx="1.5" />
    <rect x="1012" y="34" width="11" height="11" rx="1.5" />
    <rect x="1026" y="34" width="11" height="11" rx="1.5" />
    <rect x="1040" y="34" width="11" height="11" rx="1.5" />
    <rect x="1054" y="34" width="11" height="11" rx="1.5" />
  </g>

  <rect x="14" y="88" width="350" height="96" rx="8" fill="#ffffff" stroke="#e5e7eb" />
  <rect x="376" y="88" width="350" height="96" rx="8" fill="#ffffff" stroke="#e5e7eb" />
  <rect x="738" y="88" width="348" height="96" rx="8" fill="#ffffff" stroke="#e5e7eb" />

  <text x="28" y="118" class="value" fill="#2563eb">0 Opened/Closed Issue Ratio</text>
  <text x="28" y="156" class="metric" fill="#6b7280">0 (0%)</text>
  <path d="M242 143v10" stroke="#dc2626" stroke-width="1.8" stroke-linecap="round" />
  <path d="M238 149l4 4 4-4" fill="none" stroke="#dc2626" stroke-width="1.8" stroke-linecap="round" stroke-linejoin="round" />
  <text x="255" y="156" class="body" fill="#dc2626">past month</text>

  <text x="390" y="118" class="value" fill="#8b5cf6">0 Pull Requests Opened</text>
  <text x="390" y="156" class="metric" fill="#6b7280">0 (0%)</text>
  <path d="M604 143v10" stroke="#dc2626" stroke-width="1.8" stroke-linecap="round" />
  <path d="M600 149l4 4 4-4" fill="none" stroke="#dc2626" stroke-width="1.8" stroke-linecap="round" stroke-linejoin="round" />
  <text x="617" y="156" class="body" fill="#dc2626">past month</text>

  <text x="752" y="118" class="value" fill="#ea580c">156 Pushes</text>
  <text x="752" y="156" class="metric" fill="#6b7280">+24 (18.18%)</text>
  <path d="M981 153v-10" stroke="#2f855a" stroke-width="1.8" stroke-linecap="round" />
  <path d="M977 147l4-4 4 4" fill="none" stroke="#2f855a" stroke-width="1.8" stroke-linecap="round" stroke-linejoin="round" />
  <text x="994" y="156" class="body" fill="#2f855a">past month</text>

  <rect x="14" y="198" width="350" height="150" rx="8" fill="#ffffff" stroke="#e5e7eb" />
  <rect x="376" y="198" width="350" height="150" rx="8" fill="#ffffff" stroke="#e5e7eb" />
  <rect x="738" y="198" width="348" height="150" rx="8" fill="#ffffff" stroke="#e5e7eb" />

  <g fill="#2563eb">
    <circle cx="38" cy="223" r="10" fill="none" stroke="#60a5fa" stroke-width="2" />
    <circle cx="38" cy="223" r="3.5" />
  </g>
  <text x="58" y="229" class="heading" fill="#2563eb">Issues</text>
  <circle cx="271" cy="220" r="7" fill="#60a5fa" />
  <text x="284" y="225" class="body" fill="#3b82f6">Opened</text>
  <circle cx="271" cy="242" r="7" fill="#1d4ed8" />
  <text x="284" y="247" class="body" fill="#1d4ed8">Closed</text>
  <line x1="34" y1="320" x2="340" y2="320" stroke="#eff6ff" />
  <line x1="34" y1="286" x2="340" y2="286" stroke="#eff6ff" />
  <line x1="34" y1="252" x2="340" y2="252" stroke="#eff6ff" />

  <g fill="#8b5cf6">
    <circle cx="400" cy="223" r="3" />
    <circle cx="407" cy="216" r="3" />
    <circle cx="414" cy="223" r="3" />
    <line x1="400" y1="223" x2="407" y2="216" stroke="#c084fc" stroke-width="2" />
    <line x1="407" y1="216" x2="414" y2="223" stroke="#c084fc" stroke-width="2" />
    <line x1="407" y1="216" x2="407" y2="233" stroke="#c084fc" stroke-width="2" />
  </g>
  <text x="434" y="229" class="heading" fill="#8b5cf6">Pull Requests</text>
  <circle cx="635" cy="220" r="7" fill="#d8b4fe" />
  <text x="648" y="225" class="body" fill="#a855f7">Opened</text>
  <circle cx="635" cy="242" r="7" fill="#8b5cf6" />
  <text x="648" y="247" class="body" fill="#7c3aed">Closed</text>
  <line x1="396" y1="320" x2="702" y2="320" stroke="#faf5ff" />
  <line x1="396" y1="286" x2="702" y2="286" stroke="#faf5ff" />
  <line x1="396" y1="252" x2="702" y2="252" stroke="#faf5ff" />

  <g fill="#f97316">
    <rect x="751" y="217" width="14" height="12" rx="1.5" fill="none" stroke="#f97316" stroke-width="2" />
    <path d="M770 227h10" stroke="#f97316" stroke-width="2" stroke-linecap="round" />
    <path d="M766 237h14" stroke="#f97316" stroke-width="2" stroke-linecap="round" />
  </g>
  <text x="792" y="229" class="heading" fill="#ea580c">Pushes</text>
  <circle cx="996" cy="220" r="7" fill="#fb923c" />
  <text x="1009" y="225" class="body" fill="#f97316">Pushes</text>

  <g fill="#fb923c">
    <rect x="742" y="322" width="10" height="45" />
    <rect x="755" y="304" width="10" height="63" />
    <rect x="768" y="322" width="10" height="45" />
    <rect x="781" y="317" width="10" height="50" />
    <rect x="794" y="317" width="10" height="50" />
    <rect x="807" y="304" width="10" height="63" />
    <rect x="820" y="317" width="10" height="50" />
    <rect x="833" y="296" width="10" height="71" />
    <rect x="846" y="296" width="10" height="71" />
    <rect x="859" y="322" width="10" height="45" />
    <rect x="872" y="317" width="10" height="50" />
    <rect x="885" y="309" width="10" height="58" />
    <rect x="898" y="296" width="10" height="71" />
    <rect x="911" y="317" width="10" height="50" />
    <rect x="924" y="304" width="10" height="63" />
    <rect x="937" y="309" width="10" height="58" />
    <rect x="950" y="296" width="10" height="71" />
    <rect x="963" y="317" width="10" height="50" />
    <rect x="976" y="304" width="10" height="63" />
    <rect x="989" y="288" width="10" height="79" />
    <rect x="1002" y="309" width="10" height="58" />
    <rect x="1015" y="322" width="10" height="45" />
    <rect x="1028" y="312" width="10" height="55" />
    <rect x="1041" y="304" width="10" height="63" />
    <rect x="1054" y="304" width="10" height="63" />
    <rect x="1067" y="304" width="10" height="63" />
  </g>

  <rect x="14" y="362" width="1072" height="54" rx="8" fill="#ffffff" stroke="#e5e7eb" />
  <path d="M37 384c0-4.6 3.3-8 7.7-8 2.9 0 5 1.4 6.5 3.7 1.5-2.3 3.7-3.7 6.5-3.7 4.4 0 7.7 3.4 7.7 8 0 8.5-9.8 13.1-14.2 17.4-4.5-4.3-14.2-8.9-14.2-17.4z" fill="none" stroke="#10b981" stroke-width="2.3" />
  <text x="78" y="392" class="heading" fill="#2f855a">Top Contributors</text>

  <text x="265" y="384" class="small" fill="#3f7c52">github-action</text>
  <g>
    <rect x="265" y="394" width="10" height="10" rx="1.4" fill="#d1fae5" />
    <rect x="277" y="394" width="10" height="10" rx="1.4" fill="#bbf7d0" />
    <rect x="289" y="394" width="10" height="10" rx="1.4" fill="#86efac" />
    <rect x="301" y="394" width="10" height="10" rx="1.4" fill="#4ade80" />
    <rect x="313" y="394" width="10" height="10" rx="1.4" fill="#22c55e" />
    <rect x="325" y="394" width="10" height="10" rx="1.4" fill="#16a34a" />
    <rect x="337" y="394" width="10" height="10" rx="1.4" fill="#15803d" />
    <rect x="349" y="394" width="10" height="10" rx="1.4" fill="#166534" />
    <rect x="361" y="394" width="10" height="10" rx="1.4" fill="#22c55e" />
    <rect x="373" y="394" width="10" height="10" rx="1.4" fill="#86efac" />
    <rect x="385" y="394" width="10" height="10" rx="1.4" fill="#4ade80" />
    <rect x="397" y="394" width="10" height="10" rx="1.4" fill="#15803d" />
  </g>

  <text x="472" y="384" class="small" fill="#3f7c52">sun0225SUN</text>
  <g>
    <rect x="472" y="394" width="10" height="10" rx="1.4" fill="#ecfdf5" />
    <rect x="484" y="394" width="10" height="10" rx="1.4" fill="#d1fae5" />
    <rect x="496" y="394" width="10" height="10" rx="1.4" fill="#bbf7d0" />
    <rect x="508" y="394" width="10" height="10" rx="1.4" fill="#ecfdf5" />
    <rect x="520" y="394" width="10" height="10" rx="1.4" fill="#d1fae5" />
    <rect x="532" y="394" width="10" height="10" rx="1.4" fill="#bbf7d0" />
    <rect x="544" y="394" width="10" height="10" rx="1.4" fill="#86efac" />
    <rect x="556" y="394" width="10" height="10" rx="1.4" fill="#ecfdf5" />
    <rect x="568" y="394" width="10" height="10" rx="1.4" fill="#d1fae5" />
    <rect x="580" y="394" width="10" height="10" rx="1.4" fill="#bbf7d0" />
    <rect x="592" y="394" width="10" height="10" rx="1.4" fill="#ecfdf5" />
    <rect x="604" y="394" width="10" height="10" rx="1.4" fill="#d1fae5" />
  </g>
</svg>
